HIERARCHY
ROOT hip
{
  OFFSET 0 0 0
  CHANNELS 6 Xposition Yposition Zposition Zrotation Yrotation Xrotation
  JOINT abdomen
  {
    OFFSET 0 20.6881 -0.73152
    CHANNELS 3 Zrotation Xrotation Yrotation
    JOINT chest
    {
      OFFSET 0 11.7043 -0.48768
      CHANNELS 3 Zrotation Xrotation Yrotation
      JOINT neck
      {
        OFFSET 0 22.1894 -2.19456
        CHANNELS 3 Zrotation Xrotation Yrotation
        JOINT head
        {
          OFFSET -0.24384 7.07133 1.2192
          CHANNELS 3 Zrotation Xrotation Yrotation
          JOINT leftEye
          {
            OFFSET 4.14528 8.04674 8.04672
            CHANNELS 3 Zrotation Xrotation Yrotation
            End Site
            {
              OFFSET 1 0 0
            }
          }
          JOINT rightEye
          {
            OFFSET -3.6576 8.04674 8.04672
            CHANNELS 3 Zrotation Xrotation Yrotation
            End Site
            {
              OFFSET 1 0 0
            }
          }
        }
      }
      JOINT rCollar
      {
        OFFSET -2.68224 19.2634 -4.8768
        CHANNELS 3 Zrotation Xrotation Yrotation
        JOINT rShldr
        {
          OFFSET -8.77824 -1.95073 1.46304
          CHANNELS 3 Zrotation Xrotation Yrotation
          JOINT rForeArm
          {
            OFFSET -28.1742 -1.7115 0.48768
            CHANNELS 3 Zrotation Xrotation Yrotation
            JOINT rHand
            {
              OFFSET -22.5879 0.773209 7.07136
              CHANNELS 3 Zrotation Xrotation Yrotation
              JOINT rThumb1
              {
                OFFSET -1.2192 -0.487915 3.41376
                CHANNELS 3 Zrotation Xrotation Yrotation
                JOINT rThumb2
                {
                  OFFSET -3.37035 -0.52449 3.41376
                  CHANNELS 3 Zrotation Xrotation Yrotation
                  End Site
                  {
                    OFFSET -1.78271 -1.18214 1.43049
                  }
                }
              }
              JOINT rIndex1
              {
                OFFSET -7.75947 0.938293 5.60832
                CHANNELS 3 Zrotation Xrotation Yrotation
                JOINT rIndex2
                {
                  OFFSET -2.54057 -0.884171 1.56538
                  CHANNELS 3 Zrotation Xrotation Yrotation
                  End Site
                  {
                    OFFSET -1.62519 -0.234802 1.16502
                  }
                }
              }
              JOINT rMid1
              {
                OFFSET -8.24714 1.18213 3.41376
                CHANNELS 3 Zrotation Xrotation Yrotation
                JOINT rMid2
                {
                  OFFSET -3.10165 -0.590103 1.0647
                  CHANNELS 3 Zrotation Xrotation Yrotation
                  End Site
                  {
                    OFFSET -2.48547 -0.328903 0.83742
                  }
                }
              }
              JOINT rRing1
              {
                OFFSET -8.82822 0.546677 1.51678
                CHANNELS 3 Zrotation Xrotation Yrotation
                JOINT rRing2
                {
                  OFFSET -2.60934 -0.819778 -0.0198488
                  CHANNELS 3 Zrotation Xrotation Yrotation
                  End Site
                  {
                    OFFSET -2.33842 -0.294052 0.168128
                  }
                }
              }
              JOINT rPinky1
              {
                OFFSET -8.27202 -0.0477905 -0.4584
                CHANNELS 3 Zrotation Xrotation Yrotation
                JOINT rPinky2
                {
                  OFFSET -1.82734 -0.647385 -0.700984
                  CHANNELS 3 Zrotation Xrotation Yrotation
                  End Site
                  {
                    OFFSET -1.69225 -0.51767 -0.607171
                  }
                }
              }
            }
          }
        }
      }
      JOINT lCollar
      {
        OFFSET 2.68224 19.2634 -4.8768
        CHANNELS 3 Zrotation Xrotation Yrotation
        JOINT lShldr
        {
          OFFSET 8.77824 -1.95073 1.46304
          CHANNELS 3 Zrotation Xrotation Yrotation
          JOINT lForeArm
          {
            OFFSET 28.1742 -1.7115 0.48768
            CHANNELS 3 Zrotation Xrotation Yrotation
            JOINT lHand
            {
              OFFSET 22.5879 0.773209 7.07136
              CHANNELS 3 Zrotation Xrotation Yrotation
              JOINT lThumb1
              {
                OFFSET 1.2192 -0.487915 3.41376
                CHANNELS 3 Zrotation Xrotation Yrotation
                JOINT lThumb2
                {
                  OFFSET 3.37035 -0.52449 3.41376
                  CHANNELS 3 Zrotation Xrotation Yrotation
                  End Site
                  {
                    OFFSET 1.78271 -1.18214 1.43049
                  }
                }
              }
              JOINT lIndex1
              {
                OFFSET 7.75947 0.938293 5.60832
                CHANNELS 3 Zrotation Xrotation Yrotation
                JOINT lIndex2
                {
                  OFFSET 2.54057 -0.884171 1.56538
                  CHANNELS 3 Zrotation Xrotation Yrotation
                  End Site
                  {
                    OFFSET 1.62519 -0.234802 1.16502
                  }
                }
              }
              JOINT lMid1
              {
                OFFSET 8.24714 1.18213 3.41376
                CHANNELS 3 Zrotation Xrotation Yrotation
                JOINT lMid2
                {
                  OFFSET 3.10165 -0.590103 1.0647
                  CHANNELS 3 Zrotation Xrotation Yrotation
                  End Site
                  {
                    OFFSET 2.48547 -0.328903 0.83742
                  }
                }
              }
              JOINT lRing1
              {
                OFFSET 8.82822 0.546677 1.51678
                CHANNELS 3 Zrotation Xrotation Yrotation
                JOINT lRing2
                {
                  OFFSET 2.60934 -0.819778 -0.0198488
                  CHANNELS 3 Zrotation Xrotation Yrotation
                  End Site
                  {
                    OFFSET 2.33842 -0.294052 0.168128
                  }
                }
              }
              JOINT lPinky1
              {
                OFFSET 8.27202 -0.0477905 -0.4584
                CHANNELS 3 Zrotation Xrotation Yrotation
                JOINT lPinky2
                {
                  OFFSET 1.82734 -0.647385 -0.700984
                  CHANNELS 3 Zrotation Xrotation Yrotation
                  End Site
                  {
                    OFFSET 1.69225 -0.51767 -0.607171
                  }
                }
              }
            }
          }
        }
      }
    }
  }
  JOINT rButtock
  {
    OFFSET -8.77824 4.35084 1.2192
    CHANNELS 3 Zrotation Xrotation Yrotation
    JOINT rThigh
    {
      OFFSET 0 -1.70687 -2.19456
      CHANNELS 3 Zrotation Xrotation Yrotation
      JOINT rShin
      {
        OFFSET 0 -36.8199 0.73152
        CHANNELS 3 Zrotation Xrotation Yrotation
        JOINT rFoot
        {
          OFFSET 0.73152 -45.1104 -5.12064
          CHANNELS 3 Zrotation Xrotation Yrotation
          End Site
          {
            OFFSET -1.1221 -3.69964 12.103
          }
        }
      }
    }
  }
  JOINT lButtock
  {
    OFFSET 8.77824 4.35084 1.2192
    CHANNELS 3 Zrotation Xrotation Yrotation
    JOINT lThigh
    {
      OFFSET 0 -1.70687 -2.19456
      CHANNELS 3 Zrotation Xrotation Yrotation
      JOINT lShin
      {
        OFFSET 0 -36.8199 0.73152
        CHANNELS 3 Zrotation Xrotation Yrotation
        JOINT lFoot
        {
          OFFSET -0.73152 -45.1104 -5.12064
          CHANNELS 3 Zrotation Xrotation Yrotation
          End Site
          {
            OFFSET 1.1221 -3.69964 12.103
          }
        }
      }
    }
  }
}
MOTION
Frames:	4
Frame Time:	0.03333
44.0986 62.456100000000006 -75.3787 -178.987278 38.709916 -175.1067 -1.185751 27.420065 -128.710336 45.505253 34.227339 136.986068 -172.860868 15.181119 93.588176 112.850869 -19.870498 58.628078 -75.648813 13.944151 -17.902969 -52.537887 0.738327 -1.495868 35.151462 -4.682499 -32.399337 -108.547131 -25.921292 179.227058 -10.042661 61.360557 -150.622512 151.503904 10.064077 135.21794 123.10976 -63.72662 -6.499749 115.956011 15.494 28.030119 -43.836658 -32.441772 -144.578523 -160.261905 -2.60236 154.041836 -75.30578 12.788919 178.301045 12.915385 6.725615 61.949642 86.007001 9.77755 -38.728051 -82.65129 71.521465 89.161891 47.141555 -21.833238 -27.647183 -176.63112 42.051072 -131.442459 -30.252315 47.619128 2.596796 60.607901 42.908159 -114.709884 31.487515 -53.602589 -22.275447 -10.136831 26.614323 11.840654 -144.77452 -56.306426 -16.80408 151.915294 -22.847552 -99.180387 102.47875 -50.431202 -135.842232 164.729739 60.297309 -65.425207 63.995119 -62.322906 173.400625 -14.54076 6.86564 20.92876 88.322331 -82.00658 97.410539 -47.100369 12.319067 49.453676 20.622467 -70.480876 71.6096 -175.605237 2.954459 131.932405 129.249392 80.013045 -0.0 -120.96351 -11.837584 20.632866 88.984911 8.102325 -178.570305 -168.156078 23.318027 -34.581378 121.09169 64.348996 61.471072 169.096583 27.027392 156.951692 79.699583 -20.80117 151.434734 139.519479 -47.514317 131.275807
45.880900000000004 59.8437 -77.5587 179.520997 31.310772 -178.28157 -2.496218 29.826179 -145.397876 35.418975 49.444201 137.901028 -165.28365 15.131395 79.832689 98.522147 -22.26184 44.643103 -64.613464 9.933502 -15.650584 -51.014322 1.401929 -2.937762 -127.997591 -7.705513 -176.793059 133.513702 0.660318 177.183947 -174.91939 -53.13353 18.117556 155.63964 20.240519 137.353092 39.411368 65.512636 8.193937 -66.615927 16.570551 -68.128057 12.003912 -23.741923 -108.663378 -35.624967 73.120324 49.669088 -59.594221 -13.279183 -170.011515 -9.694233 -21.087567 40.166391 -59.890902 9.996863 -140.107335 19.936072 1.163495 4.584299 -45.023143 -8.953396 -122.522602 -111.724447 42.209233 144.938756 -102.980704 82.223584 62.159791 -2.629566 -0.442925 -60.461921 -173.766377 12.307339 -98.521638 -140.204869 -35.252014 -127.011391 147.821683 -61.465669 -78.765126 88.8962 15.456689 -98.421469 -51.326381 10.38096 -12.161601 106.058449 84.230703 -8.206443 107.197648 -52.270011 -148.437895 83.456244 -64.628976 103.841142 43.625765 -84.551318 64.149229 58.691147 -72.703121 107.465957 -64.506928 -8.099882 -29.039452 87.662823 -22.380431 71.786089 -85.188556 2.168621 -26.537004 129.040013 -16.009943 -77.392665 -92.882096 8.533936 -80.699651 -125.036485 5.581867 -103.576494 -31.911442 24.876732 -43.857313 46.093206 -40.375537 58.055027 42.444538 77.560988 63.186198 83.47328 -66.083791 58.024019
47.3014 57.255500000000005 -80.135 179.465475 20.969945 179.649461 -0.588265 36.863301 -0.0 18.317667 -69.54678 17.682798 -179.282318 19.34985 -117.187457 -84.60018 -1.511023 -131.195255 -44.3885 5.635786 -13.758685 -45.432677 2.380587 -5.682576 -107.578201 -59.266083 -147.426157 -55.668562 -16.976752 -46.088618 -167.921651 -38.495967 -49.080533 33.141816 -16.449704 -2.168192 -94.294037 -0.918101 130.065873 25.435062 47.414107 -9.693383 141.278105 56.880965 -95.784222 -7.038068 -2.808243 19.359063 -11.145691 -43.973663 -131.667803 6.972164 -66.687521 0.889817 -105.930581 55.080316 -133.808646 27.439256 0.198049 -4.221845 40.813267 -36.876961 -49.888284 78.774087 65.067408 -93.269303 49.967763 -52.005354 112.253527 -105.664398 50.513215 93.949898 105.858519 80.275196 -165.241616 3.27347 53.222247 -6.672486 -149.246746 -55.867408 -22.627069 142.887735 -51.750532 -79.617372 179.954334 -59.493407 -56.41383 -16.245092 4.200336 -44.640427 117.831966 -68.026817 -132.72873 34.513634 -55.797601 75.577904 -94.255194 -70.548675 -64.393332 -11.091834 73.973398 12.67298 65.098303 -40.467882 160.624654 -128.184492 -84.419211 -133.490964 -130.662603 44.028388 -59.162032 -177.837383 0.532396 103.823622 70.420649 -43.360158 -132.208044 -142.756787 35.696701 -27.267152 -60.261061 51.153424 -45.005189 86.014144 -24.708602 -91.668323 -48.379176 -66.970951 86.726014 -136.031273 -25.580719 -106.446472
48.5699 58.335800000000006 -82.891 -179.705432 11.345001 178.550475 5.06371 37.802302 -0.0 4.083145 -74.088824 8.702093 -165.283995 -1.774296 68.712958 93.973933 8.970861 21.305177 -36.957005 4.906176 -14.610605 -43.675326 4.082632 -10.165444 -1.236954 -38.935152 -43.698056 83.048769 36.967257 -52.99424 -27.760188 6.192805 141.645179 65.734048 -43.840546 37.149181 28.358037 64.868382 -10.216838 -147.486861 -77.829978 169.646674 176.749405 69.777136 -126.377857 -6.44704 -2.500317 22.64507 153.714019 57.74847 -71.750175 -14.461094 43.719314 9.426654 -73.865436 21.362524 -141.117935 19.036028 33.237873 -4.269959 152.036488 73.797969 -25.540198 47.206675 -50.286557 -5.895508 92.374585 -34.101733 150.171488 102.5102 -63.114132 81.063223 -175.570489 48.957101 -81.483283 -132.150096 -47.137728 -128.043174 22.934407 33.737476 -58.695169 155.112823 0.479215 -123.474611 173.122907 -54.124647 -63.01023 -16.833686 5.723952 -23.18337 0.647973 56.295454 -74.793952 16.510828 -10.17296 -27.428985 102.954089 35.701723 -137.312614 24.888531 72.842311 -36.746357 -77.386309 11.690419 -51.882487 -41.28876 12.860906 61.097989 -18.432339 4.463837 26.76735 48.422314 -68.979478 -180.0 2.47981 -71.411105 -104.34274 -88.166969 -15.547981 -91.041628 79.212095 12.793999 27.23056 -118.951374 2.138476 -0.0 36.237253 73.149629 34.343852 151.307158 30.349973 21.886852
